<svg width="12" height="12" viewBox="0 0 12 12" fill="none" xmlns="http://www.w3.org/2000/svg">
<path d="M4.6536 5.71202L8.9754 2.74262C9.3186 2.51282 9.6 2.68142 9.6 3.11762V8.88302C9.6 9.31802 9.3186 9.48662 8.9754 9.25802L4.6536 6.28742C4.6536 6.28742 4.4862 6.16802 4.4862 6.00062C4.4862 5.83262 4.6536 5.71202 4.6536 5.71202ZM3.6 2.40002H3C2.6682 2.40002 2.4 2.42882 2.4 2.76002V9.24002C2.4 9.57122 2.6682 9.60002 3 9.60002H3.6C3.9318 9.60002 4.2 9.57122 4.2 9.24002V2.76002C4.2 2.42882 3.9318 2.40002 3.6 2.40002Z" fill="white"/>
</svg>
