<svg width="150" height="179" viewBox="0 0 150 179" fill="none" xmlns="http://www.w3.org/2000/svg">
<path d="M8.01563 0.246764C4.97637 1.16317 2.2377 3.8327 0.834961 7.25926L0 9.25145V89.1382V169.025L0.768164 170.818C1.93711 173.687 3.27305 175.36 5.57754 176.834L7.68164 178.189H15.8643H24.0469L26.151 176.834C28.4889 175.32 29.4908 174.085 30.8268 171.057L31.7285 169.025V89.1382V9.25145L30.593 6.7413C29.3572 3.99208 27.9211 2.39833 25.5498 1.0038C24.1471 0.167077 23.5793 0.087389 16.5322 0.00770152C12.3908 -0.0321422 8.5834 0.087389 8.01563 0.246764Z" fill="white"/>
<path d="M50.7656 0.246764C47.7264 1.16317 44.9877 3.8327 43.585 7.25926L42.75 9.25145V89.1382V169.025L43.5182 170.818C44.6871 173.687 46.023 175.36 48.3275 176.834L50.4316 178.189H58.6143H66.7969L68.901 176.834C71.2389 175.32 72.2408 174.085 73.5768 171.057L74.4785 169.025V89.1382V9.25145L73.343 6.7413C72.1072 3.99208 70.6711 2.39833 68.2998 1.0038C66.8971 0.167077 66.3293 0.087389 59.2822 0.00770152C55.1408 -0.0321422 51.3334 0.087389 50.7656 0.246764Z" fill="white"/>
<path d="M103.468 1.28271C98.993 2.43817 91.4449 5.14755 90.1424 6.06396C87.2367 8.09599 85.3664 11.8015 85.0992 15.985C84.9322 18.2163 86.2014 24.1132 101.498 92.3257C110.616 132.966 118.397 167.351 118.765 168.706C119.667 171.973 121.504 174.404 124.276 176.037C127.448 177.91 129.352 177.791 137.067 175.241C140.474 174.125 143.847 172.77 144.615 172.212C147.554 170.18 149.425 166.515 149.692 162.291C149.859 160.06 148.556 154.004 132.959 84.596C123.674 43.2382 115.726 8.57411 115.325 7.57802C113.922 4.23114 110.415 1.44208 107.042 0.963955C106.207 0.844424 104.604 0.963955 103.468 1.28271Z" fill="white"/>
</svg>
