<svg width="12" height="12" viewBox="0 0 12 12" fill="none" xmlns="http://www.w3.org/2000/svg">
<path d="M10.5 6.75H6.375C5.96079 6.75 5.625 7.08579 5.625 7.5V9.75C5.625 10.1642 5.96079 10.5 6.375 10.5H10.5C10.9142 10.5 11.25 10.1642 11.25 9.75V7.5C11.25 7.08579 10.9142 6.75 10.5 6.75Z" fill="white"/>
<path d="M4.875 8.25H1.5C1.30109 8.25 1.11032 8.17098 0.96967 8.03033C0.829018 7.88968 0.75 7.69891 0.75 7.5V2.625C0.75 2.42609 0.829018 2.23532 0.96967 2.09467C1.11032 1.95402 1.30109 1.875 1.5 1.875H9.75C9.94891 1.875 10.1397 1.95402 10.2803 2.09467C10.421 2.23532 10.5 2.42609 10.5 2.625V6H9.75V2.625H1.5V7.5H4.875V8.25Z" fill="white"/>
</svg>
