<svg width="5" height="5" viewBox="0 0 5 5" fill="none" xmlns="http://www.w3.org/2000/svg">
<g clip-path="url(#clip0_74_14)">
<path d="M0.416667 2.91671C0.646785 2.91671 0.833333 2.73016 0.833333 2.50004C0.833333 2.26992 0.646785 2.08337 0.416667 2.08337C0.186548 2.08337 0 2.26992 0 2.50004C0 2.73016 0.186548 2.91671 0.416667 2.91671Z" fill="white"/>
<path d="M2.24999 2.91671C2.48011 2.91671 2.66666 2.73016 2.66666 2.50004C2.66666 2.26992 2.48011 2.08337 2.24999 2.08337C2.01988 2.08337 1.83333 2.26992 1.83333 2.50004C1.83333 2.73016 2.01988 2.91671 2.24999 2.91671Z" fill="white"/>
<path d="M4.08332 2.91671C4.31344 2.91671 4.49999 2.73016 4.49999 2.50004C4.49999 2.26992 4.31344 2.08337 4.08332 2.08337C3.8532 2.08337 3.66666 2.26992 3.66666 2.50004C3.66666 2.73016 3.8532 2.91671 4.08332 2.91671Z" fill="white"/>
</g>
<defs>
<clipPath id="clip0_74_14">
<rect width="5" height="5" fill="white"/>
</clipPath>
</defs>
</svg>
