<svg width="30" height="30" viewBox="0 0 30 30" fill="none" xmlns="http://www.w3.org/2000/svg">
<g clip-path="url(#clip0_74_14)">
<path d="M2.5 17.5C3.88071 17.5 5 16.3807 5 15C5 13.6193 3.88071 12.5 2.5 12.5C1.11929 12.5 0 13.6193 0 15C0 16.3807 1.11929 17.5 2.5 17.5Z" fill="white"/>
<path d="M13.5 17.5C14.8807 17.5 16 16.3807 16 15C16 13.6193 14.8807 12.5 13.5 12.5C12.1193 12.5 11 13.6193 11 15C11 16.3807 12.1193 17.5 13.5 17.5Z" fill="white"/>
<path d="M24.5 17.5C25.8807 17.5 27 16.3807 27 15C27 13.6193 25.8807 12.5 24.5 12.5C23.1193 12.5 22 13.6193 22 15C22 16.3807 23.1193 17.5 24.5 17.5Z" fill="white"/>
</g>
<defs>
<clipPath id="clip0_74_14">
<rect width="30" height="30" fill="white"/>
</clipPath>
</defs>
</svg>
