<svg width="24" height="24" viewBox="0 0 24 24" fill="none" xmlns="http://www.w3.org/2000/svg">
<g clip-path="url(#clip0_72_2)">
<path fill-rule="evenodd" clip-rule="evenodd" d="M21.5 9.479V3.5H15.521L12 -0.0209961L8.479 3.5H3.5V8.479L-0.0209961 12L3.5 15.521V20.5H8.479L12 24.021L15.521 20.5H20.5V15.521L24.021 12L21.5 9.479ZM10.752 16C11.263 15.999 11.743 15.799 12.099 15.442H12.1L19.309 8.307L17.899 6.888L10.751 13.961L7.2 10.47L5.798 11.895L9.4 15.438C9.762 15.801 10.241 16 10.752 16Z" fill="#178ADB"/>
<path d="M12.099 15.442C11.743 15.799 11.263 15.999 10.752 16C10.241 16 9.762 15.801 9.4 15.438L5.798 11.895L7.2 10.47L10.751 13.961L17.899 6.888L19.309 8.307L12.1 15.442H12.099Z" fill="#D9D9D9"/>
</g>
<defs>
<clipPath id="clip0_72_2">
<rect width="24" height="24" fill="white"/>
</clipPath>
</defs>
</svg>
